<svg width="50" height="50" viewBox="0 0 50 50" fill="none" xmlns="http://www.w3.org/2000/svg">
<path d="M40 22.5L20 22.5L28.75 13.75L25.2 10.2L10.4 25L25.2 39.8L28.75 36.25L20 27.5L40 27.5L40 22.5ZM-1.09278e-06 25C-9.49278e-07 21.717 0.64664 18.4661 1.90301 15.4329C3.15938 12.3998 5.00087 9.64379 7.32233 7.32233C12.0107 2.63392 18.3696 -1.38261e-06 25 -1.09278e-06C31.6304 -8.0296e-07 37.9893 2.63392 42.6777 7.32233C47.3661 12.0107 50 18.3696 50 25C50 28.283 49.3534 31.5339 48.097 34.5671C46.8406 37.6002 44.9991 40.3562 42.6777 42.6777C40.3562 44.9991 37.6002 46.8406 34.5671 48.097C31.5339 49.3534 28.283 50 25 50C18.3696 50 12.0107 47.3661 7.32233 42.6777C2.63392 37.9893 -1.38261e-06 31.6304 -1.09278e-06 25Z" fill="black"/>
</svg>
