<svg width="50" height="50" viewBox="0 0 50 50" fill="none" xmlns="http://www.w3.org/2000/svg">
<path d="M10 27.5L30 27.5L21.25 36.25L24.8 39.8L39.6 25L24.8 10.2L21.25 13.75L30 22.5L10 22.5L10 27.5ZM50 25C50 28.283 49.3534 31.5339 48.097 34.5671C46.8406 37.6002 44.9991 40.3562 42.6777 42.6777C37.9893 47.3661 31.6304 50 25 50C18.3696 50 12.0107 47.3661 7.32233 42.6777C2.63392 37.9893 2.19055e-07 31.6304 2.98122e-07 25C3.37272e-07 21.717 0.646645 18.4661 1.90301 15.4329C3.15938 12.3998 5.00087 9.6438 7.32233 7.32233C9.6438 5.00087 12.3998 3.15938 15.4329 1.90301C18.4661 0.64664 21.717 2.58972e-07 25 2.98122e-07C31.6304 3.77189e-07 37.9893 2.63392 42.6777 7.32233C47.3661 12.0107 50 18.3696 50 25Z" fill="black"/>
</svg>
